<svg width="393" height="60" viewBox="0 0 393 60" fill="none" xmlns="http://www.w3.org/2000/svg">
<g filter="url(#filter0_d_108_2)">
<path d="M50 13.502C49.9999 26.402 49.9999 39.1621 49.9999 52C48.927 52 48.0168 52 47 52C47 34.6761 47 17.3748 47 0C47.9534 0 48.8661 0 50 0C50 4.46518 50 8.91363 50 13.502Z" fill="white"/>
</g>
<g filter="url(#filter1_d_108_2)">
<path d="M14.8317 40.228C12.0324 35.0979 9.19971 29.9857 6.44496 24.8317C4.36924 20.9481 3.28667 16.8254 4.52268 12.4562C6.51478 5.41427 11.6141 2.00303 18.455 0.377614C29.034 -2.136 38.0662 8.36062 36.898 18.1814C36.2739 23.4274 33.7424 27.6315 30.8298 31.7422C29.0317 34.2799 27.104 36.7262 25.3377 39.2851C24.8145 40.0431 24.6423 41.0446 24.2208 42C23.9658 41.9065 23.7993 41.7475 23.6338 41.4805C24.5411 39.7643 25.3565 38.0956 26.3716 36.5597C28.9772 32.6172 32.0707 28.9427 34.2413 24.7796C37.9279 17.7084 37.0588 9.09405 29.6825 3.42029C26.8798 1.26457 23.7861 0.25568 20.3156 0.851076C18.1839 1.21678 16.0315 1.72588 14.0266 2.52116C7.46583 5.12374 3.80682 11.873 5.01619 18.8356C5.66035 22.5441 7.68767 25.6073 9.50707 28.8009C11.6131 32.4977 13.4326 36.3585 15.2398 40.1648C15.0126 40.197 14.9222 40.2125 14.8317 40.228Z" fill="white"/>
</g>
<g filter="url(#filter2_d_108_2)">
<path d="M14.6125 40.3257C14.674 40.2051 14.7663 40.1897 15.0701 40.233C15.9491 42.1032 16.2483 42.308 18.0866 42.0113C19.5271 41.7788 19.0628 40.5596 19.0758 39.7734C19.1469 35.4639 19.0914 31.1526 19.1122 26.8421C19.1157 26.1197 18.8113 25.9138 18.1281 25.8083C17.1567 25.6582 16.1379 25.4905 15.2797 25.0608C14.7345 24.7878 14.444 24.026 14.0393 23.4833C14.7529 23.3197 15.5325 22.8971 16.165 23.0519C17.1697 23.2978 18.0761 23.9293 19.1421 24.456C19.2139 23.4362 19.2867 22.4026 19.3646 21.2965C18.773 21.2125 18.2478 21.2034 17.7666 21.0562C16.7555 20.7469 15.7052 20.4715 14.7996 19.9625C14.4181 19.7481 14.3619 18.9777 14.1578 18.4601C14.6675 18.331 15.2346 17.9943 15.6761 18.1117C17.0032 18.4644 18.2814 18.9941 19.5964 19.4611C19.7707 18.6206 19.9638 17.69 20.1342 16.8684C19.1642 16.3438 18.1944 16.0383 17.5737 15.4043C17.1805 15.0026 17.3072 14.1117 17.2007 13.4403C17.7985 13.4973 18.454 13.4223 18.9801 13.6433C19.7071 13.9488 20.3367 14.4773 21.008 14.9104C21.0077 14.6249 21.1376 13.8622 21.4394 13.1717C21.9486 12.0067 22.4376 10.7964 23.1838 9.78065C23.692 9.08894 24.6841 8.59301 25.5137 9.4684C26.3018 10.3 25.8017 11.1587 25.1526 11.8079C24.4961 12.4646 23.7657 13.1043 22.9508 13.5427C21.5501 14.2964 21.2126 15.5779 20.8431 16.9811C20.9271 17.1164 21.0536 17.1815 21.2732 17.21C22.2239 16.8023 23.0662 16.3903 23.944 16.0725C24.6998 15.7989 25.7202 15.5063 25.981 16.4871C26.1158 16.9941 25.5084 18.0438 24.9656 18.3024C23.528 18.9871 21.9429 19.3746 20.1601 19.9652C20.1276 20.3794 20.067 21.149 19.9679 21.986C20.0562 22.1005 20.1831 22.1477 20.407 22.1682C21.6983 21.7442 22.8797 21.2981 24.0966 20.985C24.3878 20.9101 24.9264 21.196 25.1081 21.4706C25.2326 21.6586 25.0287 22.2001 24.8065 22.4307C24.461 22.7893 24.0122 23.1349 23.5413 23.2787C22.3422 23.6451 21.1066 23.8967 19.7826 24.2194C19.7556 24.7094 19.7242 25.2815 19.6788 26.1085C20.2905 25.84 20.644 25.6368 21.0254 25.527C21.9714 25.2548 22.9193 24.9366 23.8891 24.8227C24.2704 24.778 24.7122 25.2281 25.1265 25.4529C24.8588 25.7964 24.6622 26.2796 24.3079 26.4526C23.6843 26.7572 22.9747 26.9282 22.282 27.0522C21.4608 27.1991 20.6193 27.2372 19.6931 27.332C19.6931 32.227 19.6931 37.0106 19.6931 41.8758C20.9981 41.8159 22.2643 41.7577 23.5501 41.8251C23.5804 42.1195 23.5911 42.2884 23.4988 42.482C20.9551 42.5657 18.5138 42.6088 16.0742 42.6969C15.5809 42.7148 15.094 42.903 14.504 43C14.2692 42.9818 14.1346 42.9763 14 42.9707C14.3293 42.5438 14.6586 42.1168 15.0871 41.5611C14.9753 41.2762 14.8093 40.8535 14.6125 40.3257ZM23.1965 12.7062C23.8118 12.0856 24.4514 11.4854 25.0246 10.8294C25.1624 10.6718 25.1927 10.2016 25.0731 10.0996C24.8656 9.92254 24.3218 9.7683 24.2335 9.8691C23.5258 10.6772 22.8917 11.5473 22.2351 12.3984C22.4922 12.531 22.7494 12.6636 23.1965 12.7062ZM24.0983 16.7668C23.0062 17.2587 21.9142 17.7506 20.8221 18.2426C20.8872 18.3759 20.9523 18.5092 21.0173 18.6425C22.8607 19.0518 24.1752 18.1066 25.671 16.8639C25.0467 16.8147 24.6869 16.7864 24.0983 16.7668ZM20.5353 22.7328C20.617 22.9619 20.6504 23.3552 20.788 23.394C21.8621 23.6972 23.9335 22.6216 24.5531 21.2689C23.1308 21.7716 21.9192 22.1999 20.5353 22.7328ZM17.4691 20.4066C17.8451 20.3737 18.2211 20.3407 18.5971 20.3077C18.6312 20.1288 18.6653 19.9499 18.6994 19.7711C17.4782 19.3704 16.257 18.9697 15.0357 18.5691C14.9323 18.817 14.8289 19.0649 14.7254 19.3127C15.5629 19.6738 16.4004 20.0348 17.4691 20.4066ZM16.9785 25.0701C17.2613 24.989 17.544 24.9079 17.8268 24.8268C17.6545 24.5946 17.5325 24.255 17.3003 24.1505C16.6374 23.852 15.9298 23.6492 15.1035 23.3612C15.1268 24.8174 16.0615 24.7671 16.9785 25.0701ZM17.6516 14.3477C18.2804 14.8981 18.9093 15.4486 19.5382 15.999C19.6576 15.8507 19.777 15.7024 19.8965 15.5541C19.3546 14.829 19.0924 13.7356 17.6516 14.3477ZM24.0529 25.7533C22.8169 24.9216 21.9954 25.9552 21.0172 26.2834C21.0456 26.4078 21.074 26.5322 21.1024 26.6565C22.0503 26.4146 22.9982 26.1728 24.0529 25.7533Z" fill="white"/>
</g>
<g filter="url(#filter3_d_108_2)">
<path fill-rule="evenodd" clip-rule="evenodd" d="M342.437 6.17489C343.792 6.75708 345.155 7.34267 346.74 6.54661C348.878 5.12124 349.379 2.84192 349.928 0.347088C349.952 0.238266 349.976 0.129035 350 0.0194467C349.677 0.0194467 349.37 0.0155439 349.074 0.011787C348.343 0.00249374 347.682 -0.00590658 347.025 0.0478703C346.744 0.0707881 346.351 0.366966 346.241 0.649488C345.607 2.27662 344.518 2.13729 343.325 1.66869C342.869 1.48953 342.416 1.30132 341.963 1.11313C341.161 0.780432 340.36 0.447789 339.545 0.165284C338.328 -0.256202 337.22 0.154491 336.322 1.10073C334.86 2.64145 334.324 4.65282 334 6.97446C334.202 6.97446 334.39 6.9723 334.568 6.97025C334.933 6.96606 335.257 6.96234 335.58 6.97858L335.623 6.98073C336.646 7.03242 337.585 7.07988 338.124 5.7034C338.281 5.30372 339.203 5.05161 339.739 5.113C340.248 5.17119 340.739 5.40731 341.231 5.64353C341.445 5.74654 341.66 5.84957 341.876 5.93786C342.063 6.01439 342.25 6.0946 342.437 6.17489ZM324.792 11.6006L324.792 11.6007C324.924 11.8681 325.051 12.1238 324.979 12.2829C324.362 13.6557 323.711 15.0123 323.039 16.4126L323.039 16.413L323.039 16.4135L323.038 16.4157L323.037 16.4165L323.034 16.4227C322.835 16.8382 322.634 17.2574 322.431 17.6822C319.533 15.9691 316.612 15.3858 313.524 16.325C311.703 16.8789 310.096 17.8162 308.968 19.4818C306.518 23.1013 306.627 27.422 309.188 30.6278C311.528 33.5576 316.684 35.4285 322.437 32.1332C322.643 32.5576 322.851 32.9808 323.059 33.4039C323.709 34.7277 324.36 36.0509 324.933 37.4096C325.04 37.6654 324.59 38.3854 324.234 38.6109C321.336 40.4474 318.114 40.8867 314.799 40.7575C313.8 40.7186 313.199 40.9723 313.264 42.2984C313.386 42.3379 313.514 42.3784 313.645 42.42L313.646 42.4203L313.648 42.4209L313.649 42.4212L313.649 42.4213C313.95 42.5166 314.269 42.6178 314.585 42.7266C316.62 43.4253 317.583 44.6406 317.548 46.4544C317.512 48.3339 316.21 50.0998 314.435 50.6774C311.674 51.5762 308.837 50.5838 306.803 47.8646C306.992 47.7117 307.179 47.5538 307.367 47.3958C307.862 46.9779 308.359 46.5585 308.904 46.2234C309.062 46.1264 309.372 46.2813 309.664 46.4268C309.763 46.4761 309.859 46.5244 309.947 46.5615C310.193 46.6652 310.438 46.7914 310.681 46.9173C311.211 47.1909 311.739 47.4636 312.284 47.5047C312.623 47.5302 312.987 47.2027 313.35 46.8751C313.513 46.7281 313.676 46.581 313.837 46.4659C313.717 46.2936 313.606 46.0919 313.496 45.8902L313.496 45.8901L313.496 45.8901C313.25 45.4414 313.003 44.9927 312.652 44.8682C312.064 44.6605 311.41 44.6572 310.652 44.6533C310.306 44.6516 309.938 44.6497 309.545 44.6282C309.651 44.2956 309.754 43.9637 309.857 43.6329L309.857 43.6324C310.093 42.8739 310.327 42.1216 310.592 41.3817C310.92 40.4687 310.769 40.0393 309.805 39.5852C303.824 36.7659 300.113 32.1471 300.002 25.0691C299.87 16.7192 306.619 9.41723 314.664 9.02977C318.175 8.86064 321.551 9.38143 324.69 11.388C324.722 11.4586 324.757 11.5299 324.792 11.6004L324.792 11.6006ZM376.776 39.7991C367.979 41.1119 360.566 35.8739 359.232 27.5071C357.797 18.5178 363.158 10.5977 371.623 9.19978C380.371 7.75517 388.44 14.3177 388.968 23.3046C389.413 30.8972 385.238 37.3353 378.525 39.3936C378.143 39.5105 377.751 39.5926 377.315 39.6839L377.315 39.684C377.143 39.72 376.964 39.7575 376.776 39.7991ZM368.393 30.9589C372.04 34.6789 377.968 34.1858 380.311 29.8853C382.11 26.5856 382.209 23.118 380.587 19.7273C378.426 15.2113 372.138 14.1487 368.862 17.6646C365.749 21.0055 365.47 27.1784 368.393 30.9589ZM277.543 16.1892C277.27 16.8703 276.995 17.5571 276.721 18.2537C273.891 25.3092 271.098 32.2698 268.22 39.4429L268 39.9917C268.619 39.9917 269.216 39.9939 269.796 39.996H269.797H269.797H269.798C271.529 40.0024 273.114 40.0082 274.697 39.9538C275.01 39.9431 275.437 39.4814 275.586 39.1321C276.146 37.8147 276.638 36.4661 277.106 35.1118C277.346 34.4157 277.692 34.0707 278.495 34.0817C281.542 34.1234 284.591 34.1217 287.639 34.0776C288.435 34.0661 288.786 34.3881 289.027 35.0972C289.487 36.4536 289.996 37.7952 290.542 39.119C290.68 39.4529 291.028 39.936 291.292 39.944C292.972 39.9949 294.654 39.99 296.39 39.9849C296.921 39.9833 297.457 39.9817 298 39.9817C297.945 39.7878 297.902 39.6177 297.862 39.4641L297.862 39.464L297.862 39.4639C297.788 39.1774 297.729 38.9486 297.643 38.7308L297.095 37.3555L297.094 37.3541C294.079 29.7836 291.064 22.213 288.028 14.6508C287.867 14.2505 287.726 13.81 287.584 13.366C287.199 12.1597 286.805 10.9281 285.982 10.4094C285.172 9.89851 283.998 9.97869 282.813 10.0596C282.237 10.099 281.658 10.1386 281.117 10.1103C280.264 10.0659 279.793 10.3106 279.481 11.1787C278.879 12.851 278.218 14.5021 277.543 16.1892L277.543 16.1892ZM283.041 19.38L284.61 23.3752C285.218 24.9795 285.74 26.388 286.326 27.9688L286.33 27.9801H279.813L283.041 19.38ZM334.203 21.9269L334.209 21.9125C335.675 18.2226 337.119 14.5845 338.608 10.9647C338.751 10.6176 339.221 10.3786 339.629 10.1712C339.685 10.1428 339.74 10.115 339.793 10.0876C339.954 10.0036 340.173 10.027 340.388 10.05C340.465 10.0582 340.541 10.0663 340.613 10.0695C341.069 10.0895 341.555 10.064 342.041 10.0384C343.164 9.97923 344.289 9.92004 345.043 10.4234C345.782 10.9169 346.125 12.028 346.464 13.1251C346.597 13.5546 346.729 13.9819 346.884 14.3692C350.056 22.3004 353.215 30.2369 356.374 38.1735C356.506 38.5056 356.622 38.8444 356.76 39.2498C356.832 39.4609 356.91 39.69 357 39.9456C356.439 39.9456 355.889 39.9472 355.347 39.9488C353.58 39.954 351.904 39.9589 350.229 39.9065C349.97 39.8984 349.632 39.3938 349.494 39.0523C348.988 37.8055 348.508 36.5443 348.105 35.2608C347.831 34.3889 347.422 33.9958 346.437 34.0187C343.484 34.0874 340.528 34.0608 337.574 34.0235C336.762 34.0133 336.313 34.2594 336.069 35.0854C335.898 35.6635 335.679 36.2275 335.461 36.7915C335.225 37.3988 334.99 38.006 334.814 38.6304C334.53 39.6383 334.055 40.0495 332.971 39.9953C331.663 39.93 330.352 39.9429 328.935 39.9568C328.313 39.9629 327.671 39.9692 327 39.9692L327.035 39.8817L327.041 39.8657C329.107 34.697 331.098 29.7172 333.126 24.6379C333.487 23.7308 333.846 22.8273 334.203 21.9269ZM341.915 19.8444L338.749 27.871H345.394C344.225 25.01 343.15 22.378 341.915 19.8444Z" fill="white"/>
</g>
<g filter="url(#filter4_d_108_2)">
<path d="M257.646 32.5304C257.646 33.0623 257.646 33.4665 257.646 34C255.84 34 254.114 34 252.226 34C252.226 32.3578 252.185 30.7404 252.241 29.1263C252.275 28.1431 251.958 27.7424 250.928 27.7876C249.316 27.8584 247.699 27.8064 246 27.8064C246 25.9372 246 24.2382 246 22.3257C247.626 22.3257 249.234 22.2842 250.838 22.3408C251.855 22.3767 252.312 22.0988 252.247 20.9723C252.153 19.3529 252.223 17.724 252.223 16C254.044 16 255.773 16 257.641 16C257.641 17.7513 257.685 19.4195 257.624 21.0839C257.59 22.0145 257.877 22.3837 258.843 22.3387C260.242 22.2737 261.65 22.2738 263.046 22.3665C263.376 22.3884 263.925 22.8744 263.944 23.1741C264.037 24.6505 263.986 26.1361 263.986 27.8029C262.216 27.8029 260.557 27.84 258.9 27.7881C257.99 27.7596 257.569 28.0185 257.63 29.0063C257.7 30.1344 257.645 31.2702 257.646 32.5304Z" fill="#73FF50"/>
</g>
<g filter="url(#filter5_d_108_2)">
<path d="M23.8769 42.7541C23.866 42.6094 23.855 42.4646 23.8133 42.1828C23.7824 42.0458 23.8331 42 23.8331 42C24.007 42.1358 24.181 42.2716 24.4367 42.4437C24.6964 42.8146 24.8744 43.1493 24.9695 43.6043C24.9245 43.8664 24.9622 44.008 25 44.1495C24.9575 44.6397 24.9151 45.1299 24.7708 45.7256C24.6439 45.8577 24.5906 45.897 24.5986 45.9092C24.6355 45.9655 24.6895 46.0144 24.7373 46.0659C24.6835 46.3467 24.6296 46.6274 24.4259 46.95C24.276 46.9919 24.1702 47.0109 24.1434 46.9937C24.1166 46.9765 24.0628 46.9424 24.0636 46.8568C23.6228 46.6525 23.1769 46.4218 22.7405 46.4335C20.401 46.4961 18.0638 46.619 15.6602 46.6671C15.2428 46.6581 14.8909 46.7032 14.539 46.7482C14.3445 45.6304 14.1499 44.5126 14 43.2944C14.1825 43.1987 14.3203 43.2035 14.5433 43.312C14.9496 43.6518 15.2563 44.0742 15.5945 44.092C17.1831 44.1755 18.7803 44.1479 20.4204 44.2101C20.631 44.2198 20.7957 44.1794 21.0853 44.1263C22.2463 44.0214 23.2824 43.9292 24.6122 43.8108C24.2923 43.351 24.0846 43.0526 23.8769 42.7541ZM17.6296 44.8536C16.775 44.8094 15.9205 44.7652 14.7184 44.7031C14.9461 45.197 15.1354 45.9649 15.3248 45.9649C18.0395 45.9652 20.756 45.8839 23.4662 45.745C23.7015 45.733 23.8955 45.178 24.1086 44.8752C23.7659 44.7682 23.4176 44.5592 23.0813 44.5714C21.3542 44.6342 19.6302 44.7539 17.6296 44.8536Z" fill="white"/>
</g>
<g filter="url(#filter6_d_108_2)">
<path d="M15 47.1747C15.3378 47.0145 15.6658 46.9622 15.9684 47.0272C15.8153 48.083 16.423 48.197 17.0978 48.1962C18.8011 48.1941 20.5065 48.2194 22.2063 48.1348C22.6993 48.1102 23.1763 47.7513 23.698 47.6224C23.8236 47.7661 23.9118 47.833 24 47.8998C23.4103 48.9141 22.8796 49.9723 22.2044 50.9231C21.8942 51.3598 21.3379 51.7056 20.8245 51.8743C20.2842 52.0518 19.6621 51.986 19.0752 51.9962C16.9967 52.0325 16.6991 51.7502 16.2879 49.6882C16.1988 49.2412 15.8352 48.8528 15.6046 48.4336C15.3951 48.0527 15.1946 47.6665 15 47.1747ZM21.303 48.8165C19.8345 48.8165 18.3661 48.8165 16.8977 48.8165C16.8 48.9718 16.7024 49.127 16.6048 49.2823C17.0182 49.9745 17.3109 51.0995 17.8718 51.2629C18.8498 51.548 20.0503 51.4253 21.0423 51.1028C21.5268 50.9453 21.7731 49.9637 22.0652 49.3253C22.0985 49.2527 21.7294 48.9876 21.303 48.8165Z" fill="white"/>
</g>
<g filter="url(#filter7_d_108_2)">
<path fill-rule="evenodd" clip-rule="evenodd" d="M124.385 9.75163C119.355 10.8026 116.47 15.216 117.366 20.322C118.232 23.2021 120.245 24.8952 122.689 26.1826C123.343 26.5271 124.002 26.8628 124.661 27.1984L124.661 27.1985L124.661 27.1985L124.661 27.1985L124.661 27.1986C125.813 27.7858 126.966 28.373 128.092 29.0069C129.029 29.5348 129.565 30.388 129.381 31.5553C129.181 32.8186 128.381 33.6876 127.207 33.7484C125.634 33.8298 123.961 33.8009 122.479 33.3416C121.378 33.0003 120.358 32.3961 119.289 31.7626L119.289 31.7626C118.808 31.478 118.318 31.1875 117.806 30.9122C117.557 31.3284 117.309 31.7528 117.057 32.1815L117.056 32.1834L117.056 32.1844L117.055 32.1847L117.055 32.1849C116.446 33.2246 115.822 34.2894 115.15 35.3232C114.604 36.1631 114.702 36.6506 115.553 37.2148C119.602 39.8992 124.008 40.8785 128.787 40.0583C134.586 39.0631 138.021 34.097 136.494 28.8912C135.63 25.9451 133.275 24.3646 130.732 23.0332C130.053 22.678 129.363 22.3422 128.674 22.0064C127.408 21.3899 126.143 20.7739 124.95 20.0395C124.347 19.6686 123.768 18.5589 123.881 17.91C124.01 17.172 124.841 16.1356 125.519 16.0034C126.867 15.7401 128.352 15.8394 129.719 16.1049C130.537 16.2637 131.315 16.6271 132.136 17.0105C132.511 17.1856 132.895 17.3649 133.295 17.5308L135.935 12.2208C132.325 9.92841 128.518 8.88805 124.385 9.75163ZM206.964 27.1989L206.985 23.8091C207.01 19.756 207.036 15.7029 207.061 11.6498C207.063 11.3119 207.062 10.9739 207.062 10.6108V10.6006V10.5903V10.58V10.5698C207.061 10.4058 207.061 10.2365 207.061 10.0597H213.711V39.8241C213.174 39.8241 212.637 39.8279 212.102 39.8316H212.102H212.102H212.101H212.101H212.101C210.564 39.8424 209.032 39.8531 207.505 39.775C207.111 39.7548 206.661 39.1559 206.387 38.7279C203.9 34.8497 201.428 30.9614 198.957 27.0732L198.951 27.0638C198.073 25.6829 197.196 24.3019 196.317 22.9215C196.098 22.5778 195.857 22.2484 195.335 21.9423V39.7453H188.584V9.98274C189.119 9.98274 189.652 9.97962 190.182 9.97652C191.703 9.96763 193.204 9.95884 194.702 10.0239C195.086 10.0405 195.554 10.52 195.801 10.9035C197.752 13.9445 199.693 16.9916 201.65 20.0634L201.653 20.0679C203.254 22.5799 204.865 25.1085 206.501 27.6639C206.729 27.845 206.844 27.8887 206.959 27.9323L206.964 27.1989ZM93.4268 19.8348C93.4275 20.5475 93.4276 21.2502 93.4276 21.9454V21.9454V21.9455V21.9455V21.9455V21.9456C93.4277 23.8253 93.4279 25.6509 93.4399 27.4764C93.4442 28.1229 93.4765 28.7749 93.5681 29.4141C94.0846 33.0218 97.0387 34.76 100.372 33.2429C101.266 32.8362 102.11 31.8323 102.487 30.9037C102.939 29.7895 102.988 28.4637 103.001 27.2274C103.041 23.4274 103.038 19.627 103.035 15.8266V15.8256C103.034 14.4392 103.033 13.0529 103.034 11.6666C103.034 11.3309 103.034 10.9952 103.034 10.6276L103.034 10.0622H109.676C109.688 10.1641 109.702 10.2649 109.717 10.3651C109.748 10.5781 109.779 10.788 109.779 10.998C109.78 12.5762 109.783 14.1545 109.786 15.7328C109.795 20.0826 109.803 24.4325 109.766 28.7819C109.697 36.7363 105.66 40.6505 97.6919 40.2668C95.5786 40.1651 93.3414 39.6586 91.4426 38.7498C88.2913 37.2415 86.8861 34.2551 86.8163 30.8886C86.7152 26.0148 86.7356 21.1386 86.7563 16.2182V16.2177V16.2172V16.2167V16.2161V16.2156C86.7648 14.1798 86.7734 12.1364 86.7734 10.0825H93.4269L93.4268 19.8348ZM175.094 9.95798L182.457 9.958V15.8576C182.307 15.8665 182.157 15.8778 182.006 15.8891C181.677 15.9137 181.346 15.9385 181.015 15.9394C180.544 15.9407 180.072 15.9426 179.6 15.9445H179.6H179.6H179.6C177.572 15.9526 175.543 15.9607 173.516 15.9233C172.622 15.9068 172.276 16.1891 172.312 17.1096C172.354 18.1726 172.345 19.2374 172.336 20.3442C172.332 20.8213 172.328 21.3061 172.328 21.802H182.006V27.7205H172.45V33.7989H182.418V39.7231H165.651V9.95797L175.094 9.95798ZM81.3037 33.8156C82.3875 30.124 81.4377 27.071 78.2725 24.6653C77.939 24.4687 77.6126 24.2739 77.2907 24.0818L77.2903 24.0816C76.4192 23.5618 75.5809 23.0615 74.7231 22.5973C74.1102 22.2655 73.4842 21.9553 72.8585 21.6452C71.7848 21.1131 70.7117 20.5813 69.7065 19.9417C68.1228 18.9339 68.331 16.7087 70.0963 16.1007C71.2126 15.7163 72.5691 15.6609 73.7361 15.8846C74.7813 16.085 75.7871 16.4908 76.8311 16.9121L76.8312 16.9121C77.291 17.0976 77.7583 17.2862 78.2396 17.4615C78.4451 17.0452 78.6469 16.6243 78.8493 16.202L78.8495 16.2017L78.8495 16.2016L78.8495 16.2016L78.8495 16.2016C79.3373 15.184 79.8289 14.1584 80.3861 13.1698C80.818 12.4033 80.6452 12.0301 79.9456 11.64C76.907 9.94573 73.6682 9.1762 70.2033 9.57496C67.4894 9.88727 65.3118 11.2545 63.6922 13.4046C60.456 17.7005 62.062 23.3451 67.1903 25.9564C67.5235 26.1261 67.857 26.2952 68.1905 26.4644L68.1918 26.465L68.1933 26.4658L68.1934 26.4658C69.7955 27.2784 71.3979 28.0911 72.9679 28.9618C73.9702 29.5177 74.4981 30.4259 74.2783 31.637C74.0517 32.8854 73.2613 33.7202 72.0535 33.7732C70.5655 33.8385 68.9765 33.8655 67.5907 33.4166C66.4276 33.04 65.3449 32.4151 64.2265 31.7696L64.2263 31.7696L64.2263 31.7695C63.7326 31.4846 63.232 31.1957 62.7144 30.9223C62.4604 31.3485 62.2084 31.7821 61.9547 32.2187L61.9547 32.2188L61.9547 32.2188C61.3469 33.2646 60.729 34.3281 60.0476 35.3492C59.4579 36.2328 59.671 36.6924 60.4858 37.2302C64.4011 39.8145 68.6741 40.8577 73.3023 40.1192C77.0945 39.5142 80.1338 37.8004 81.3037 33.8156ZM153.976 18.7305L153.976 39.5951H147.296V15.9967H140.356V10.0186H160.891V15.8947H153.976V18.7305ZM218.512 15.9168L223.43 15.9167H225.416V39.5484H232.22V15.8726H239.067V9.98642H218.512V15.9168Z" fill="white"/>
</g>
<defs>
<filter id="filter0_d_108_2" x="43" y="0" width="11" height="60" filterUnits="userSpaceOnUse" color-interpolation-filters="sRGB">
<feFlood flood-opacity="0" result="BackgroundImageFix"/>
<feColorMatrix in="SourceAlpha" type="matrix" values="0 0 0 0 0 0 0 0 0 0 0 0 0 0 0 0 0 0 127 0" result="hardAlpha"/>
<feOffset dy="4"/>
<feGaussianBlur stdDeviation="2"/>
<feComposite in2="hardAlpha" operator="out"/>
<feColorMatrix type="matrix" values="0 0 0 0 0 0 0 0 0 0 0 0 0 0 0 0 0 0 0.25 0"/>
<feBlend mode="normal" in2="BackgroundImageFix" result="effect1_dropShadow_108_2"/>
<feBlend mode="normal" in="SourceGraphic" in2="effect1_dropShadow_108_2" result="shape"/>
</filter>
<filter id="filter1_d_108_2" x="0" y="0" width="41" height="50" filterUnits="userSpaceOnUse" color-interpolation-filters="sRGB">
<feFlood flood-opacity="0" result="BackgroundImageFix"/>
<feColorMatrix in="SourceAlpha" type="matrix" values="0 0 0 0 0 0 0 0 0 0 0 0 0 0 0 0 0 0 127 0" result="hardAlpha"/>
<feOffset dy="4"/>
<feGaussianBlur stdDeviation="2"/>
<feComposite in2="hardAlpha" operator="out"/>
<feColorMatrix type="matrix" values="0 0 0 0 0 0 0 0 0 0 0 0 0 0 0 0 0 0 0.25 0"/>
<feBlend mode="normal" in2="BackgroundImageFix" result="effect1_dropShadow_108_2"/>
<feBlend mode="normal" in="SourceGraphic" in2="effect1_dropShadow_108_2" result="shape"/>
</filter>
<filter id="filter2_d_108_2" x="10" y="9" width="20" height="42" filterUnits="userSpaceOnUse" color-interpolation-filters="sRGB">
<feFlood flood-opacity="0" result="BackgroundImageFix"/>
<feColorMatrix in="SourceAlpha" type="matrix" values="0 0 0 0 0 0 0 0 0 0 0 0 0 0 0 0 0 0 127 0" result="hardAlpha"/>
<feOffset dy="4"/>
<feGaussianBlur stdDeviation="2"/>
<feComposite in2="hardAlpha" operator="out"/>
<feColorMatrix type="matrix" values="0 0 0 0 0 0 0 0 0 0 0 0 0 0 0 0 0 0 0.25 0"/>
<feBlend mode="normal" in2="BackgroundImageFix" result="effect1_dropShadow_108_2"/>
<feBlend mode="normal" in="SourceGraphic" in2="effect1_dropShadow_108_2" result="shape"/>
</filter>
<filter id="filter3_d_108_2" x="264" y="0" width="129" height="59" filterUnits="userSpaceOnUse" color-interpolation-filters="sRGB">
<feFlood flood-opacity="0" result="BackgroundImageFix"/>
<feColorMatrix in="SourceAlpha" type="matrix" values="0 0 0 0 0 0 0 0 0 0 0 0 0 0 0 0 0 0 127 0" result="hardAlpha"/>
<feOffset dy="4"/>
<feGaussianBlur stdDeviation="2"/>
<feComposite in2="hardAlpha" operator="out"/>
<feColorMatrix type="matrix" values="0 0 0 0 0 0 0 0 0 0 0 0 0 0 0 0 0 0 0.25 0"/>
<feBlend mode="normal" in2="BackgroundImageFix" result="effect1_dropShadow_108_2"/>
<feBlend mode="normal" in="SourceGraphic" in2="effect1_dropShadow_108_2" result="shape"/>
</filter>
<filter id="filter4_d_108_2" x="242" y="16" width="26" height="26" filterUnits="userSpaceOnUse" color-interpolation-filters="sRGB">
<feFlood flood-opacity="0" result="BackgroundImageFix"/>
<feColorMatrix in="SourceAlpha" type="matrix" values="0 0 0 0 0 0 0 0 0 0 0 0 0 0 0 0 0 0 127 0" result="hardAlpha"/>
<feOffset dy="4"/>
<feGaussianBlur stdDeviation="2"/>
<feComposite in2="hardAlpha" operator="out"/>
<feColorMatrix type="matrix" values="0 0 0 0 0 0 0 0 0 0 0 0 0 0 0 0 0 0 0.25 0"/>
<feBlend mode="normal" in2="BackgroundImageFix" result="effect1_dropShadow_108_2"/>
<feBlend mode="normal" in="SourceGraphic" in2="effect1_dropShadow_108_2" result="shape"/>
</filter>
<filter id="filter5_d_108_2" x="10" y="42" width="19" height="13" filterUnits="userSpaceOnUse" color-interpolation-filters="sRGB">
<feFlood flood-opacity="0" result="BackgroundImageFix"/>
<feColorMatrix in="SourceAlpha" type="matrix" values="0 0 0 0 0 0 0 0 0 0 0 0 0 0 0 0 0 0 127 0" result="hardAlpha"/>
<feOffset dy="4"/>
<feGaussianBlur stdDeviation="2"/>
<feComposite in2="hardAlpha" operator="out"/>
<feColorMatrix type="matrix" values="0 0 0 0 0 0 0 0 0 0 0 0 0 0 0 0 0 0 0.25 0"/>
<feBlend mode="normal" in2="BackgroundImageFix" result="effect1_dropShadow_108_2"/>
<feBlend mode="normal" in="SourceGraphic" in2="effect1_dropShadow_108_2" result="shape"/>
</filter>
<filter id="filter6_d_108_2" x="11" y="47" width="17" height="13" filterUnits="userSpaceOnUse" color-interpolation-filters="sRGB">
<feFlood flood-opacity="0" result="BackgroundImageFix"/>
<feColorMatrix in="SourceAlpha" type="matrix" values="0 0 0 0 0 0 0 0 0 0 0 0 0 0 0 0 0 0 127 0" result="hardAlpha"/>
<feOffset dy="4"/>
<feGaussianBlur stdDeviation="2"/>
<feComposite in2="hardAlpha" operator="out"/>
<feColorMatrix type="matrix" values="0 0 0 0 0 0 0 0 0 0 0 0 0 0 0 0 0 0 0.25 0"/>
<feBlend mode="normal" in2="BackgroundImageFix" result="effect1_dropShadow_108_2"/>
<feBlend mode="normal" in="SourceGraphic" in2="effect1_dropShadow_108_2" result="shape"/>
</filter>
<filter id="filter7_d_108_2" x="55.712" y="9.44977" width="187.355" height="38.9012" filterUnits="userSpaceOnUse" color-interpolation-filters="sRGB">
<feFlood flood-opacity="0" result="BackgroundImageFix"/>
<feColorMatrix in="SourceAlpha" type="matrix" values="0 0 0 0 0 0 0 0 0 0 0 0 0 0 0 0 0 0 127 0" result="hardAlpha"/>
<feOffset dy="4"/>
<feGaussianBlur stdDeviation="2"/>
<feComposite in2="hardAlpha" operator="out"/>
<feColorMatrix type="matrix" values="0 0 0 0 0 0 0 0 0 0 0 0 0 0 0 0 0 0 0.25 0"/>
<feBlend mode="normal" in2="BackgroundImageFix" result="effect1_dropShadow_108_2"/>
<feBlend mode="normal" in="SourceGraphic" in2="effect1_dropShadow_108_2" result="shape"/>
</filter>
</defs>
</svg>
